<svg width="41" height="40" viewBox="0 0 41 40" fill="none" xmlns="http://www.w3.org/2000/svg">
<g clip-path="url(#clip0_1_76)">
<path d="M39.444 0H34.675C34.0269 0 33.5024 0.524141 33.5024 1.17188V2.34375H23.9048C23.4191 0.982656 22.1296 0 20.6028 0C19.0759 0 17.7864 0.982656 17.3007 2.34375H7.7032V1.17188C7.7032 0.524141 7.1787 0 6.53051 0H1.76158C1.11339 0 0.58889 0.524141 0.58889 1.17188V5.85938C0.58889 6.50711 1.11339 7.03125 1.76158 7.03125H6.53051C7.1787 7.03125 7.7032 6.50711 7.7032 5.85938V4.67188H12.5194C8.44958 7.21258 5.76608 11.675 5.44531 16.673C4.03824 17.1333 3.01245 18.4422 3.01245 20C3.01245 21.9386 4.59057 23.5156 6.53051 23.5156C8.47045 23.5156 10.0486 21.9386 10.0486 20C10.0486 18.5047 9.10566 17.2334 7.78607 16.726C8.18619 11.1538 12.077 6.45719 17.4891 5.11719C18.0745 6.2482 19.243 7.03125 20.6028 7.03125C21.9626 7.03125 23.1311 6.2482 23.7164 5.11719C29.1285 6.45711 33.0194 11.1537 33.4195 16.7259C32.0999 17.2334 31.157 18.5047 31.157 20C31.157 21.9386 32.7351 23.5156 34.675 23.5156C36.615 23.5156 38.1931 21.9386 38.1931 20C38.1931 18.4422 37.1673 17.1333 35.7603 16.673C35.4395 11.675 32.756 7.2282 28.6862 4.6875H33.5024V5.85938C33.5024 6.50711 34.0269 7.03125 34.675 7.03125H39.444C40.0922 7.03125 40.6167 6.50711 40.6167 5.85938V1.17188C40.6167 0.524141 40.0922 0 39.444 0Z" fill="white"/>
<path d="M28.581 38.5465C27.9676 36.6708 26.2004 35.2344 24.1208 35.2344H17.0847C15.0051 35.2344 13.238 36.6708 12.6246 38.5465C12.3881 39.2697 13.0038 40 13.7652 40H27.4403C28.2017 40 28.8175 39.2697 28.581 38.5465Z" fill="white"/>
<path d="M30.96 24.0375L21.7755 10.2703V21.3878C23.1375 21.8732 24.1208 23.1617 24.1208 24.6875C24.1208 26.6261 22.5427 28.2032 20.6028 28.2032C18.6628 28.2032 17.0847 26.6261 17.0847 24.6875C17.0847 23.1617 18.0681 21.8732 19.4301 21.3878V10.2703L10.2456 24.0375C9.93522 24.5021 9.99706 25.1213 10.3922 25.5161C12.545 27.6675 13.9211 30.4389 14.4522 33.4118C15.2668 33.0816 16.1528 32.8907 17.0847 32.8907H24.1208C25.0527 32.8907 25.9387 33.0815 26.7534 33.4117C27.2844 30.4386 28.6606 27.6675 30.8134 25.5161C31.2085 25.1213 31.2703 24.5021 30.96 24.0375Z" fill="white"/>
<path d="M20.6028 23.5156C19.9558 23.5156 19.4301 24.0409 19.4301 24.6875C19.4301 25.3341 19.9558 25.8594 20.6028 25.8594C21.2498 25.8594 21.7755 25.3341 21.7755 24.6875C21.7755 24.0409 21.2498 23.5156 20.6028 23.5156Z" fill="white"/>
</g>
<defs>
<clipPath id="clip0_1_76">
<rect x="0.58889" width="40.0278" height="40" rx="10" fill="white"/>
</clipPath>
</defs>
</svg>
