<svg width="41" height="40" viewBox="0 0 41 40" fill="none" xmlns="http://www.w3.org/2000/svg">
<g clip-path="url(#clip0_1_98)">
<path d="M39.4419 37.6562H2.93218V1.17188C2.93218 0.524141 2.40768 0 1.7595 0C1.11131 0 0.586807 0.524141 0.586807 1.17188V38.8281C0.586807 39.4759 1.11131 40 1.7595 40H39.4419C40.0901 40 40.6146 39.4759 40.6146 38.8281C40.6146 38.1804 40.0901 37.6562 39.4419 37.6562Z" fill="white"/>
<path d="M6.45025 35.3125H11.2192C11.8674 35.3125 12.3919 34.7884 12.3919 34.1406V27.0312C12.3919 26.3835 11.8674 25.8594 11.2192 25.8594H6.45025C5.80206 25.8594 5.27756 26.3835 5.27756 27.0312V34.1406C5.27756 34.7884 5.80206 35.3125 6.45025 35.3125Z" fill="white"/>
<path d="M15.9099 21.1719C15.2618 21.1719 14.7373 21.696 14.7373 22.3438V34.1406C14.7373 34.7884 15.2618 35.3125 15.9099 35.3125H20.6007C21.2489 35.3125 21.7734 34.7884 21.7734 34.1406V22.3438C21.7734 21.696 21.2489 21.1719 20.6007 21.1719H15.9099Z" fill="white"/>
<path d="M25.2914 16.4844C24.6433 16.4844 24.1188 17.0085 24.1188 17.6562V34.1406C24.1188 34.7884 24.6433 35.3125 25.2914 35.3125H29.9822C30.6304 35.3125 31.1549 34.7884 31.1549 34.1406V17.6562C31.1549 17.0085 30.6304 16.4844 29.9822 16.4844H25.2914Z" fill="white"/>
<path d="M39.4419 11.7969H34.673C34.0248 11.7969 33.5003 12.321 33.5003 12.9688V34.1406C33.5003 34.7884 34.0248 35.3125 34.673 35.3125H39.4419C40.0901 35.3125 40.6146 34.7884 40.6146 34.1406V12.9688C40.6146 12.321 40.0901 11.7969 39.4419 11.7969Z" fill="white"/>
<path d="M5.41726 20.555C5.72677 21.1299 6.44211 21.3358 7.00563 21.0322L34.3126 6.38078L33.6239 7.75711C33.3342 8.33617 33.569 9.04 34.1484 9.32953C34.7332 9.61961 35.4334 9.38047 35.722 8.80539L38.0673 4.11789C38.2494 3.75508 38.2299 3.32367 38.0158 2.97805C37.8017 2.63242 37.4249 2.42188 37.0183 2.42188H31.1549C30.5067 2.42188 29.9822 2.94602 29.9822 3.59375C29.9822 4.24148 30.5067 4.76562 31.1549 4.76562H32.3667L5.89486 18.9677C5.32454 19.2756 5.11033 19.9862 5.41726 20.555Z" fill="white"/>
</g>
<defs>
<clipPath id="clip0_1_98">
<rect x="0.586807" width="40.0278" height="40" rx="10" fill="white"/>
</clipPath>
</defs>
</svg>
