<svg width="41" height="40" viewBox="0 0 41 40" fill="none" xmlns="http://www.w3.org/2000/svg">
<g clip-path="url(#clip0_1_27)">
<path d="M11.6993 9.22771L8.38275 5.91349C7.9247 5.45576 7.18254 5.45576 6.72449 5.91349C6.26644 6.37123 6.26644 7.11287 6.72449 7.5706L10.041 10.8848C10.4991 11.3426 11.2412 11.3426 11.6993 10.8848C12.1573 10.4271 12.1573 9.68544 11.6993 9.22771Z" fill="white"/>
<path d="M6.74857 18.8281H1.97963C1.33145 18.8281 0.806946 19.3523 0.806946 20C0.806946 20.6477 1.33145 21.1719 1.97963 21.1719H6.74857C7.39675 21.1719 7.92126 20.6477 7.92126 20C7.92126 19.3523 7.39675 18.8281 6.74857 18.8281Z" fill="white"/>
<path d="M39.662 18.8281H34.8931C34.2449 18.8281 33.7204 19.3523 33.7204 20C33.7204 20.6477 34.2449 21.1719 34.8931 21.1719H39.662C40.3102 21.1719 40.8347 20.6477 40.8347 20C40.8347 19.3523 40.3102 18.8281 39.662 18.8281Z" fill="white"/>
<path d="M34.9172 5.91349C34.4591 5.45576 33.717 5.45576 33.2589 5.91349L29.9424 9.22771C29.4843 9.68544 29.4843 10.4271 29.9424 10.8848C30.4004 11.3426 31.1426 11.3426 31.6006 10.8848L34.9172 7.5706C35.3752 7.11287 35.3752 6.3713 34.9172 5.91349Z" fill="white"/>
<path d="M20.8208 0C20.1726 0 19.6481 0.524141 19.6481 1.17188V5.9375C19.6481 6.58523 20.1726 7.10938 20.8208 7.10938C21.469 7.10938 21.9935 6.58523 21.9935 5.9375V1.17188C21.9935 0.524141 21.469 0 20.8208 0Z" fill="white"/>
<path d="M27.3879 11.7265C24.8315 9.71084 21.5245 8.98435 18.2878 9.75779C14.5352 10.625 11.5098 13.6015 10.595 17.3281C9.68029 21.078 10.7357 24.8749 13.4328 27.5233C14.3945 28.4844 14.9574 29.9921 14.9574 31.539V31.7969C14.9574 32.453 15.4733 32.9687 16.1301 32.9687H25.5116C26.1684 32.9687 26.6843 32.453 26.6843 31.7969V31.539C26.6843 30.0155 27.2706 28.4608 28.3026 27.453C30.2728 25.4608 31.375 22.8125 31.375 20C31.375 16.7656 29.9209 13.7421 27.3879 11.7265ZM20.8208 16.4844C19.0516 16.4844 17.7637 17.6571 17.4265 19.0147C17.273 19.6321 16.6513 20.0261 16.0052 19.8707C15.3777 19.7151 14.994 19.0787 15.1498 18.4516C15.7308 16.1079 17.9338 14.1406 20.8208 14.1406C21.469 14.1406 21.9935 14.6647 21.9935 15.3125C21.9935 15.9602 21.469 16.4844 20.8208 16.4844Z" fill="white"/>
<path d="M16.1301 35.3125V36.4844C16.1301 38.423 17.7082 40 19.6481 40H21.9935C23.9335 40 25.5116 38.423 25.5116 36.4844V35.3125H16.1301Z" fill="white"/>
</g>
<defs>
<clipPath id="clip0_1_27">
<rect x="0.806946" width="40.0278" height="40" rx="10" fill="white"/>
</clipPath>
</defs>
</svg>
