<svg width="41" height="40" viewBox="0 0 41 40" fill="none" xmlns="http://www.w3.org/2000/svg">
<g clip-path="url(#clip0_1_61)">
<path d="M20.8243 8.59375C23.1991 8.59375 25.1242 6.66997 25.1242 4.29688C25.1242 1.92378 23.1991 0 20.8243 0C18.4496 0 16.5244 1.92378 16.5244 4.29688C16.5244 6.66997 18.4496 8.59375 20.8243 8.59375Z" fill="white"/>
<path d="M13.0918 32.4188C11.8781 33.7173 10.1516 34.5312 8.23745 34.5312C6.32331 34.5312 4.5968 33.7173 3.38307 32.4188C1.83152 33.4741 0.810425 35.2528 0.810425 37.2656V38.8281C0.810425 39.4753 1.33548 40 1.98311 40H14.4918C15.1394 40 15.6645 39.4753 15.6645 38.8281V37.2656C15.6645 35.2528 14.6434 33.4741 13.0918 32.4188Z" fill="white"/>
<path d="M38.2655 32.4188C37.0518 33.7173 35.3253 34.5312 33.4112 34.5312C31.497 34.5312 29.7705 33.7173 28.5568 32.4188C27.0052 33.4741 25.9841 35.2528 25.9841 37.2656V38.8281C25.9841 39.4753 26.5092 40 27.1568 40H39.6655C40.3131 40 40.8382 39.4753 40.8382 38.8281V37.2656C40.8382 35.2528 39.8171 33.4741 38.2655 32.4188Z" fill="white"/>
<path d="M29.1678 28.582C29.4997 30.6237 31.2758 32.1875 33.4112 32.1875C35.7821 32.1875 37.711 30.2599 37.711 27.8906C37.711 25.5213 35.7821 23.5937 33.4112 23.5937C31.6345 23.5937 30.106 24.6762 29.4515 26.2159L24.3389 24.6293C24.2826 23.1609 23.321 21.9209 21.997 21.4516V16.4062H27.0787C27.7263 16.4062 28.2513 15.8816 28.2513 15.2344V13.6719C28.2513 11.6591 27.2302 9.88031 25.6787 8.82507C24.465 10.1235 22.7385 10.9375 20.8243 10.9375C18.9102 10.9375 17.1837 10.1235 15.9699 8.82507C14.4184 9.88031 13.3973 11.6591 13.3973 13.6719V15.2344C13.3973 15.8816 13.9223 16.4062 14.57 16.4062H19.6516V21.4516C18.3276 21.9209 17.3661 23.1608 17.3097 24.6293L12.1972 26.2159C11.5426 24.6762 10.0142 23.5937 8.23745 23.5937C5.86651 23.5937 3.93759 25.5213 3.93759 27.8906C3.93759 30.2599 5.86651 32.1875 8.23745 32.1875C10.3728 32.1875 12.1489 30.6237 12.4809 28.582L18.0058 26.8674C18.6479 27.7251 19.6723 28.2812 20.8243 28.2812C21.9763 28.2812 23.0007 27.7251 23.6428 26.8673L29.1678 28.582Z" fill="white"/>
</g>
<defs>
<clipPath id="clip0_1_61">
<rect x="0.810425" width="40.0278" height="40" rx="10" fill="white"/>
</clipPath>
</defs>
</svg>
