<svg width="67" height="20" viewBox="0 0 67 20" fill="none" xmlns="http://www.w3.org/2000/svg">
<path d="M2.76 11.02H5.476C6.96933 11.02 8.12667 10.712 8.948 10.096C9.76933 9.46133 10.18 8.50933 10.18 7.24C10.18 5.97067 9.77867 5.04667 8.976 4.468C8.192 3.87067 7.06267 3.572 5.588 3.572C5.084 3.572 4.58 3.6 4.076 3.656C3.59067 3.69333 3.152 3.74933 2.76 3.824V11.02ZM5.616 12.924H0.492V3.208C0.492 2.90933 0.566667 2.68533 0.716 2.536C0.884 2.368 1.11733 2.23733 1.416 2.144C1.95733 1.976 2.61067 1.85467 3.376 1.78C4.16 1.70533 4.916 1.668 5.644 1.668C8.01467 1.668 9.74133 2.172 10.824 3.18C11.9253 4.16933 12.476 5.51333 12.476 7.212C12.476 8.36933 12.224 9.37733 11.72 10.236C11.2347 11.0947 10.488 11.7573 9.48 12.224C8.472 12.6907 7.184 12.924 5.616 12.924ZM0.492 11.832H2.788V18.944C2.676 18.9813 2.52667 19.0187 2.34 19.056C2.15333 19.112 1.948 19.14 1.724 19.14C1.31333 19.14 1.00533 19.056 0.8 18.888C0.594667 18.72 0.492 18.4587 0.492 18.104V11.832ZM19.4933 17.544C20.2773 17.544 20.9213 17.4693 21.4253 17.32C21.9479 17.152 22.3213 16.9933 22.5453 16.844V12.784L19.0733 13.148C18.1026 13.2227 17.3839 13.4373 16.9173 13.792C16.4506 14.1467 16.2173 14.66 16.2173 15.332C16.2173 16.0227 16.4879 16.564 17.0293 16.956C17.5893 17.348 18.4106 17.544 19.4933 17.544ZM19.4653 5.7C21.0893 5.7 22.3773 6.064 23.3293 6.792C24.2813 7.52 24.7573 8.668 24.7573 10.236V16.872C24.7573 17.2827 24.6733 17.6 24.5053 17.824C24.3559 18.0293 24.1226 18.2253 23.8053 18.412C23.3573 18.6547 22.7599 18.8787 22.0133 19.084C21.2666 19.2893 20.4266 19.392 19.4933 19.392C17.7386 19.392 16.3759 19.0467 15.4053 18.356C14.4533 17.6653 13.9773 16.6667 13.9773 15.36C13.9773 14.1467 14.3786 13.2227 15.1813 12.588C16.0026 11.9347 17.1319 11.5427 18.5693 11.412L22.5453 11.02V10.236C22.5453 9.30267 22.2653 8.62133 21.7053 8.192C21.1453 7.76267 20.3893 7.548 19.4373 7.548C18.6719 7.548 17.9346 7.66 17.2253 7.884C16.5346 8.108 15.9186 8.36 15.3773 8.64C15.2279 8.50933 15.0879 8.36 14.9573 8.192C14.8453 8.00533 14.7893 7.81867 14.7893 7.632C14.7893 7.14667 15.0599 6.77333 15.6013 6.512C16.1053 6.25067 16.6839 6.05467 17.3373 5.924C18.0093 5.77467 18.7186 5.7 19.4653 5.7ZM39.2059 10.46V13.316H36.9659V10.572C36.9659 9.52667 36.6673 8.76133 36.0699 8.276C35.4913 7.79067 34.7073 7.548 33.7179 7.548C32.9713 7.548 32.3086 7.64133 31.7299 7.828C31.1513 8.01467 30.6566 8.22933 30.2459 8.472V13.316H28.0059V8.584C28.0059 8.192 28.0806 7.87467 28.2299 7.632C28.3979 7.37067 28.6779 7.11867 29.0699 6.876C29.5553 6.596 30.1993 6.33467 31.0019 6.092C31.8046 5.83067 32.7099 5.7 33.7179 5.7C35.4166 5.7 36.7513 6.092 37.7219 6.876C38.7113 7.64133 39.2059 8.836 39.2059 10.46ZM28.0059 11.776H30.2459V18.944C30.1526 18.9813 30.0126 19.0187 29.8259 19.056C29.6393 19.112 29.4339 19.14 29.2099 19.14C28.8179 19.14 28.5193 19.0653 28.3139 18.916C28.1086 18.748 28.0059 18.4867 28.0059 18.132V11.776ZM36.9659 11.776H39.2059V18.944C39.1126 18.9813 38.9633 19.0187 38.7579 19.056C38.5713 19.112 38.3753 19.14 38.1699 19.14C37.7593 19.14 37.4513 19.0653 37.2459 18.916C37.0593 18.748 36.9659 18.4867 36.9659 18.132V11.776ZM51.3805 16.788V7.38L53.6205 7.352V16.872C53.6205 17.2267 53.5365 17.516 53.3685 17.74C53.2191 17.9453 52.9765 18.1507 52.6405 18.356C52.2671 18.5987 51.7351 18.8227 51.0445 19.028C50.3538 19.252 49.5605 19.364 48.6645 19.364C47.3205 19.364 46.1351 19.1307 45.1085 18.664C44.0818 18.1973 43.2791 17.4693 42.7005 16.48C42.1218 15.472 41.8325 14.1747 41.8325 12.588C41.8325 10.964 42.1125 9.648 42.6725 8.64C43.2511 7.632 44.0258 6.89467 44.9965 6.428C45.9671 5.94267 47.0311 5.7 48.1885 5.7C48.9165 5.7 49.6071 5.80267 50.2605 6.008C50.9138 6.21333 51.4271 6.46533 51.8005 6.764V8.836C51.4458 8.48133 50.9791 8.18267 50.4005 7.94C49.8405 7.67867 49.1778 7.548 48.4125 7.548C47.6471 7.548 46.9378 7.716 46.2845 8.052C45.6311 8.36933 45.1085 8.90133 44.7165 9.648C44.3245 10.3947 44.1285 11.3933 44.1285 12.644C44.1285 14.3427 44.5391 15.584 45.3605 16.368C46.1818 17.1333 47.2738 17.516 48.6365 17.516C49.2898 17.516 49.8218 17.4507 50.2325 17.32C50.6618 17.1707 51.0445 16.9933 51.3805 16.788ZM53.6205 7.912L51.3805 7.94V0.856C51.4738 0.818666 51.6138 0.781333 51.8005 0.744C52.0058 0.687999 52.2111 0.659999 52.4165 0.659999C52.8271 0.659999 53.1258 0.743999 53.3125 0.911999C53.5178 1.06133 53.6205 1.31333 53.6205 1.668V7.912ZM61.653 17.544C62.437 17.544 63.081 17.4693 63.585 17.32C64.1076 17.152 64.481 16.9933 64.705 16.844V12.784L61.233 13.148C60.2623 13.2227 59.5436 13.4373 59.077 13.792C58.6103 14.1467 58.377 14.66 58.377 15.332C58.377 16.0227 58.6476 16.564 59.189 16.956C59.749 17.348 60.5703 17.544 61.653 17.544ZM61.625 5.7C63.249 5.7 64.537 6.064 65.489 6.792C66.441 7.52 66.917 8.668 66.917 10.236V16.872C66.917 17.2827 66.833 17.6 66.665 17.824C66.5156 18.0293 66.2823 18.2253 65.965 18.412C65.517 18.6547 64.9196 18.8787 64.173 19.084C63.4263 19.2893 62.5863 19.392 61.653 19.392C59.8983 19.392 58.5356 19.0467 57.565 18.356C56.613 17.6653 56.137 16.6667 56.137 15.36C56.137 14.1467 56.5383 13.2227 57.341 12.588C58.1623 11.9347 59.2916 11.5427 60.729 11.412L64.705 11.02V10.236C64.705 9.30267 64.425 8.62133 63.865 8.192C63.305 7.76267 62.549 7.548 61.597 7.548C60.8316 7.548 60.0943 7.66 59.385 7.884C58.6943 8.108 58.0783 8.36 57.537 8.64C57.3876 8.50933 57.2476 8.36 57.117 8.192C57.005 8.00533 56.949 7.81867 56.949 7.632C56.949 7.14667 57.2196 6.77333 57.761 6.512C58.265 6.25067 58.8436 6.05467 59.497 5.924C60.169 5.77467 60.8783 5.7 61.625 5.7Z" fill="black"/>
</svg>
